<svg xmlns="http://www.w3.org/2000/svg" width="2000" height="1118" viewBox="0 0 2000 1118">
  <defs>
    <style>
      .cls-1 {
        fill: #e5e3d8;
        fill-rule: evenodd;
        opacity: 0.95;
      }
    </style>
  </defs>
  <path id="dino" class="cls-1" d="M462.016,669.692s30.5-8.73,17.77-30.177S452.8,632.6,427.976,617.1s-21.891-49.084,13.89-64.986-74.115-20.2-64.2-70.37,69.427-37,57.189-55.721-83-48.736-28.66-130.724S508.817,178.954,577.014,184.608s98.536,19.632,143.04,19.281,54.025-20.32,82.719-16.28,89.571,58.861,125.27,49.458,54.918-3.1,91.227-3.132,128.77,79.782,238.15,50.958,257.24,25.963,272.94,47.076,97.74,104.655,98.24,122.959c-0.55,26.813-54.06,147-54.06,147s-38.96-28.992-47.18-44.075-78.84,51.089-78.84,51.089l-68.83-48.707-48.68,68.869-77.34-61.855-35.54,60.354-55.69-57.222s-21.51-10.879-39.42,25.545-22.45,88.255,7.76,69.619,52.56-34.059,52.56-34.059l42.55,65.737,70.33-64.237,29.41,74.252,83.47-72.751,55.69,57.222,57.19-55.722s126.79,78.48,111.38,114.445c-27.92,31.086-77.49,77.18-96.61,81.266s-92.17-30.017-143.04-19.281-66.26,35.56-156.93,45.706-295.458-71.1-346.4-74.121-134.529-6.133-134.529-6.133S631.362,789.322,549,759C487.548,736.376,462.016,669.692,462.016,669.692ZM1434.5,356.763s-44.03,97.885-14.64,121.459,107.88-2.745,95.86-24.794c6.91,12.679-1.8-32.7-38.67-30.928C1455.63,423.531,1434.5,356.763,1434.5,356.763ZM1016.27,459.822c76.37,5.6,96.17-22.013,91.98-59.6s-33.84-37.972-68.83-48.708c-40-12.276-74.432-47.089-95.107-31.677C891.656,359.084,957.9,455.54,1016.27,459.822Zm-238.9,5.514c3.247,68.984,10.22,51.97,55.69,57.222s64.95,13.9,64.95,13.9-15.876-87.031-28.661-130.724-12.195-77.247-37.92-87.4C796.635,304.6,769.049,288.452,777.374,465.336Z"/>
</svg>
