<svg xmlns="http://www.w3.org/2000/svg" width="1258" height="675" viewBox="0 0 1258 675">
  <defs>
    <style>
      .cls-1 {
        fill: #3b1717;
        fill-rule: evenodd;
        opacity: 0.5;
      }
    </style>
  </defs>
  <path id="dino" class="cls-1" d="M85.016,485.692s30.5-8.73,17.77-30.177S75.8,448.6,50.976,433.1s-21.891-49.084,13.89-64.986-74.115-20.2-64.2-70.37,69.428-37,57.19-55.721-83-48.736-28.66-130.724S131.817-5.046,200.014.608,298.55,20.24,343.054,19.889,397.079-.431,425.773,3.609s89.571,58.86,125.27,49.458,54.918-3.1,91.229-3.132,128.769,79.782,238.149,50.958,257.239,25.963,272.939,47.076,97.74,104.655,98.24,122.959c-0.55,26.813-54.06,147-54.06,147s-38.96-28.992-47.18-44.075-78.84,51.089-78.84,51.089l-68.83-48.707-48.678,68.869-77.34-61.855-35.54,60.354-55.69-57.222s-21.515-10.879-39.419,25.545-22.452,88.255,7.76,69.619,52.56-34.059,52.56-34.059l42.55,65.737,70.329-64.237,29.41,74.252L1032.1,450.49l55.69,57.222,57.19-55.722s126.79,78.48,111.38,114.445c-27.92,31.086-77.49,77.18-96.61,81.266s-92.17-30.017-143.04-19.281-66.259,35.56-156.927,45.706-295.461-71.1-346.4-74.121-134.529-6.133-134.529-6.133S254.362,605.322,172,575C110.548,552.376,85.016,485.692,85.016,485.692ZM1057.5,172.763s-44.03,97.885-14.64,121.459,107.88-2.745,95.86-24.794c6.91,12.679-1.8-32.7-38.67-30.928C1078.63,239.531,1057.5,172.763,1057.5,172.763ZM639.273,275.822c76.363,5.6,96.164-22.013,91.979-59.6s-33.845-37.972-68.829-48.708c-40-12.276-74.435-47.089-95.11-31.677C514.656,175.084,580.9,271.54,639.273,275.822Zm-238.9,5.514c3.247,68.984,10.22,51.97,55.69,57.222s64.95,13.9,64.95,13.9-15.876-87.031-28.661-130.724-12.195-77.247-37.92-87.4C419.635,120.6,392.049,104.452,400.374,281.336Z"/>
</svg>
