<svg xmlns="http://www.w3.org/2000/svg" width="1689" height="1688" viewBox="0 0 1689 1688">
  <defs>
    <style>
      .cls-1 {
        fill: #302c47;
        fill-rule: evenodd;
      }
    </style>
  </defs>
  <path class="cls-1" d="M845,1688C378.319,1688,0,1309.68,0,843S378.319-2,845-2s845,378.319,845,845S1311.68,1688,845,1688ZM846.5,39C401.635,39,41,399.635,41,844.5S401.635,1650,846.5,1650,1652,1289.37,1652,844.5,1291.37,39,846.5,39Zm480.81,1257.62c-7.77,3.81-10.87,4.52-21.17,4.8-12.99.43-21.6-1.97-33.31-9.32-10.87-6.77-71-58.59-71-61.28-0.14-2.96,19.19-26.4,21.88-26.4,0.98,0,15.95,12.14,33.31,26.97,32.46,27.81,37.96,31.63,47.28,33.04,12.14,1.98,27.24-12.43,27.24-25.98,0-10.87-4.94-16.52-39.94-46.03-17.5-14.69-32.18-27.68-32.61-28.52-0.84-2.12,19.9-27.26,22.59-27.26,0.98,0,6.77,4.24,12.84,9.61,6.07,5.22,21.17,18.21,33.59,28.8s24.42,21.6,26.68,24.57c20.89,26.69,17.22,57.89-9.88,84.44A80.579,80.579,0,0,1,1327.31,1296.62Zm0-815.981-7.91.141,0.57,8.9c0.42,6.072-.14,10.872-1.84,15.108-2.82,7.484-12.28,17.509-20.04,21.18-2.97,1.524-8.22,2.558-13.39,2.959-0.02.307-.79,0.54-1.99,0.43a2.553,2.553,0,0,1-1.42-.255,30.092,30.092,0,0,1-9.03-.875c-14.11-4.659-20.47-10.166-52.51-45.748-13.49-15.1-19.39-21.871-21.49-25.381-0.36.413-.71-0.182-0.69-1.361a2.249,2.249,0,0,1,.17-2.486c3.05-4.332,83.21-74.985,100.71-89.061a2.667,2.667,0,0,1,1.47-1.306,0.244,0.244,0,0,1,.11.058,9.018,9.018,0,0,1,1.73-1.187c3.53-.565,48.84,50.69,54.91,62.127,8.89,16.944,7.19,33.746-4.52,45.466C1344.39,477.25,1336.91,480.639,1327.31,480.639Zm-66.34-35.865a101.345,101.345,0,0,0-8.75,7.625l-8.19,7.483,12.85,14.261c7.05,7.908,14.53,15.391,16.51,16.521,5.22,2.824,7.76,2.541,12.14-.848,4.09-3.106,4.94-9.036,1.97-14.4C1285.67,471.884,1262.1,444.774,1260.97,444.774Zm56.17-18.5c-13.4-15.532-14.53-16.8-15.52-16.8-0.57,0-4.52,3.106-8.75,6.918l-7.48,6.778,9.17,10.449c5.08,5.789,11.15,11.86,13.55,13.7,5.22,3.812,9.32,3.953,13.27.282C1326.88,442.515,1325.61,436.3,1317.14,426.277ZM1180.23,1332.91c13.84,0,25.97,8.47,32.89,23.16,7.9,16.66,4.8,30.07-10.59,45.32-8.32,8.19-15.1,12.85-40.93,27.53-35.14,20.05-35.43,20.2-37.26,17.94-1.13-1.42-36.13-62.13-62.81-108.73-4.09-7.34-6.49-12.99-5.79-13.69,1.7-1.7,51.24-30.22,61.26-35.3,15.1-7.63,30.21-8.47,42.2-2.26,5.37,2.82,14.12,12.71,16.66,19.06,2.4,5.65,3.1,17.09,1.41,23.16C1176.28,1332.63,1176.56,1332.91,1180.23,1332.91Zm-46.57-13.56c-3.53.71-27.67,13.14-30.63,15.82-0.85.71,1.83,6.21,6.21,13.13,1.97,3.25,3.95,5.79,4.37,5.79,2.4,0,27.53-15.96,29.36-18.64C1148.48,1327.69,1142.55,1317.52,1133.66,1319.35Zm42.48,45.89c-4.8-4.8-12.28-2.96-30.49,7.35-8.75,4.94-15.95,9.6-15.95,10.3s2.4,5.37,5.23,10.31c2.82,4.8,5.5,8.9,5.78,8.9,1.7,0,31.34-17.94,34.58-20.9C1180.09,1376.68,1180.52,1369.62,1176.14,1365.24Zm-34.86-952.659-14.68-8.048,1.13-12.708c1.83-23.157,4.37-19.2-21.74-33.464l-22.86-12.567-12.14,9.884c-6.78,5.507-12.99,10.025-13.98,10.025-3.1,0-29.64-15.108-30.06-17.226-0.28-1.271,22.58-20.332,59-49.278,32.6-25.98,59.84-47.3,60.55-47.584,2.4-.847,28.37,14.261,28.37,16.52,0,5.79-14.26,150.235-14.96,151.365C1158.64,421.618,1156.24,420.771,1141.28,412.581Zm-12.42-104.345c-4.52,3.671-10.45,8.472-13.13,10.59l-4.8,4.094,10.45,5.789c5.78,3.248,10.86,5.79,11.29,5.931,1.13,0,2.26-6.919,3.53-21.745l0.98-11.3Zm-137.95,2c-0.186,6.876-2.169,20.872-3.9,25.537-0.706,1.695-2.259,3.107-3.67,2.965-1.835-.141-96.4-16.1-98.8-16.661-1.835-.424,20.89-137.809,23.148-140.068,0.847-.848,5.787-0.565,14.679.847,20.325,3.389,19.619,3.106,19.619,7.483,0,2.118-3.811,26.122-8.327,53.232-4.658,27.251-7.9,49.843-7.481,50.266,0.565,0.565,14.961,3.248,32.04,6.072s31.617,5.789,32.322,6.5a3.486,3.486,0,0,1,.368,1.812c0.02,0.013.036,0.009,0.056,0.024a1.7,1.7,0,0,1,0,1.976A0.489,0.489,0,0,1,990.91,310.232ZM1157.09,669.42c0.42,2.542.84,27.957,0.84,56.621,0,57.467-.14,58.738-8.61,64.951-8.04,5.93-80.73,47.3-84.97,48.29-3.1.706-6.77-.283-15.95-4.942-14.96-7.484-26.53-8.755-38.81-4.378C998.3,833.916,981.5,845.777,966.4,860.32c-34.016,32.9-53.776,79.071-52.365,122.984,0.283,13.131.988,16.806,3.953,22.736,4.234,8.75,13.267,17.65,22.159,22.02,9.175,4.38,26.253,5.37,35.428,1.98,11.433-4.24,30.207-17.65,44.177-31.628,14.54-14.544,24.42-28.1,33.45-46.031,3.11-6.212,6.78-12.284,8.19-13.7,1.55-1.271,18.63-11.578,38.25-22.874,37.54-21.745,40.93-23.015,49.54-18.638,8.05,4.1,8.05,4.659,8.05,66.645,0,55.352-.14,56.9-2.97,60.852-2.96,3.96-12.98,10.03-115.6,69.33-30.2,17.37-65.487,37.84-78.331,45.19-12.844,7.48-42.908,24.85-67.044,38.68-24,13.98-45.308,25.56-47.284,25.84a16.433,16.433,0,0,1-6.492-.42c-1.553-.56-24.136-13.27-50.248-28.38-33.31-19.34-47.99-28.52-49.683-31.35-1.976-3.39-2.259-10.3-2.259-54.64v-50.83l3.67-4.38a29.194,29.194,0,0,1,8.751-6.78c7.2-3.38,15.95-12.56,20.184-20.89,2.823-5.93,3.529-9.605,3.811-22.736,1.129-34.311-11.433-72.294-33.875-102.369-16.514-22.168-46.437-46.737-63.092-51.537-15.949-4.8-35.145.423-46.719,12.284-11.151,11.437-15.1,24.145-13.55,43.489,2.682,33.04,12.138,60.433,30.487,88.531l7.058,10.872V1028.2c0,47.87-.283,49.85-8.469,54.08-8.328,4.38-10.727,3.39-59.705-24.85-25.829-14.82-48.271-28.38-50.106-29.93a21.059,21.059,0,0,1-4.376-7.2c-1.411-4.94-2.117-343.82-.705-350.738a18.13,18.13,0,0,1,4.093-7.625c1.835-1.836,24.7-15.532,50.812-30.64,37.7-21.633,45.808-26.141,50.682-26.623a1.68,1.68,0,0,1,1.621-.026c0.347,0.022.693,0.058,1.05,0.1,4.376,0.423,16.8,6.918,45.167,23.439,21.6,12.566,40.367,23.438,41.779,24.427a13.081,13.081,0,0,1,5.589,7.172,0.9,0.9,0,0,1,.2.452,0.854,0.854,0,0,1-.016.1,38.46,38.46,0,0,1,1.427,11.625c0,21.6,9.88,35.441,33.028,46.736,29.217,14.12,52.506,19.062,84.123,17.933,29.217-1.13,50.812-6.919,76.642-20.333C956.659,700.625,964,665.043,942.4,641.039c-4.94-5.506-9.739-8.754-20.749-14.119-27.946-13.555-45.025-17.368-79.888-17.791l-26.112-.283-37.121-21.462c-38.956-22.591-41.215-24.427-41.215-33.887,0-9.319,1.835-10.872,48.272-37.7,57.87-33.464,55.329-32.193,61.116-30.64,5.928,1.553,301.773,172.4,306.283,176.78A18.492,18.492,0,0,1,1157.09,669.42ZM563.711,701.472V1006.18l9.6,5.5c5.222,2.97,17.5,10.17,27.241,15.82s18.49,10.31,19.337,10.31c1.27,0,1.693-5.93,1.693-21.18V995.588l-6.492-10.166c-12.7-19.486-22.443-44.054-28.23-70.458-3.528-16.379-4.234-48.008-1.411-59.162a83.5,83.5,0,0,1,58.717-59.586c3.528-.988,12.42-1.694,19.76-1.694a80.674,80.674,0,0,1,42.626,12A209.313,209.313,0,0,1,801.4,934.308c7.481,29.651,8.328,59.021,2.4,76.532-5.364,15.53-18.067,32.9-29.358,39.82l-4.658,2.96v71.45l27.947,16.23c15.243,9.04,28.229,16.38,28.935,16.52,0.564,0,.987-68.34.987-151.78V854.39l-12.985-7.625c-7.2-4.236-64.5-37.417-127.454-73.705C624.4,736.772,570.768,705.849,568.368,704.3Zm535.369-33.605c-7.77-4.377-131.129-75.541-176.154-101.662-67.891-39.253-78.2-45.184-79.042-45.184-1.552,0-55.752,31.629-55.752,32.617,0,0.424,8.61,5.648,19.054,11.719L826.1,576.23l9.6-.848c11.009-.988,34.3.989,50.671,4.236a220.734,220.734,0,0,1,51.377,17.933c12.421,6.212,16.655,9.177,26.112,18.779,8.186,8.048,12.7,13.978,15.949,20.756,11.151,22.874,11.292,48.149.424,70.6-8.751,18.073-21.6,30.075-44.6,41.23-59.705,29.087-126.184,28.8-185.606-.989-28.794-14.4-44.32-34.452-49.4-63.539-1.412-7.624-2.259-9.319-5.787-11.437-25.83-15.249-55.894-32.334-57.164-32.334-1.412,0-57.305,31.769-56.6,32.334,0.423,0.424,42.484,24.71,116.727,67.634,78.759,45.466,95.838,55.35,123.5,71.446,11.715,6.778,21.736,12.426,22.3,12.426,0.706,0.141,23.571-12.849,50.812-28.663,27.382-15.815,74.807-43.207,105.436-60.857,73.4-42.5,106.42-61.7,106.99-62.127C1107.12,672.668,1103.59,670.409,1099.08,667.867Zm24.98,66.787V701.472l-4.52,2.824c-7.62,4.519-37.97,22.168-140.862,81.472-30.628,17.791-69.726,40.382-86.8,50.125l-31.052,18.073L860.4,1005.9c-0.141,83.58,0,151.92.424,151.92s59.7-34.17,131.971-75.82l131.267-75.82V940.1l-6.64,3.954c-32.46,18.638-32.04,18.355-35.56,25.556-5.09,10.59-20.05,32.613-29.22,43.063-24,27.11-55.9,48.15-78.479,51.96a79.469,79.469,0,0,1-70.29-22.59c-17.925-17.79-24.842-37.13-23.571-65.655a209.094,209.094,0,0,1,92.027-164.072c19.619-13.132,33.453-17.791,52.223-17.791,12.28,0,20.89,1.835,32.32,6.636l5.37,2.259,30.91-17.791,30.91-17.791V734.654ZM804.081,317.131c-10.727,6.354-18.772,8.472-54.764,13.979-17.785,2.683-34.157,5.224-36.275,5.507-1.976.423-4.375,0-5.081-.989-2.312-2.7-19.124-113.952-20.846-135.392-0.364.023-.608-0.4-0.608-1.146a1.04,1.04,0,0,1,.472-1.1,3.245,3.245,0,0,1,.093-1.3c1.846-1.847,50.074-9.386,70.426-11.284,0,0,0-.007,0-0.012a1.688,1.688,0,0,1,1.7-.139c2.188-.182,3.971-0.284,5.212-0.284,24.842,0,40.65,14.543,40.65,37.276,0,9.884-3.246,20.333-6.916,22.592-2.117,1.412-1.976,3.671.282,3.671,4.094,0,15.1,8.613,18.49,14.543C828.5,282.679,822.854,305.835,804.081,317.131Zm-46.154-98.274c-5.5,0-30.347,3.671-31.335,4.519a79.183,79.183,0,0,0,1.13,10.731c1.27,7.624,2.117,10.166,3.81,10.166,4.8,0,28.794-4.377,31.194-5.648C774.441,232.412,771.053,218.857,757.927,218.857Zm19.195,52.667c-4.093-.988-40.932,3.53-41.92,5.225-0.423.706,0,6.071,0.847,12,1.553,10.59,1.694,10.731,5.364,10.025,1.976-.423,10.3-1.694,18.49-3.106,8.186-1.271,16.09-2.824,17.784-3.389C788.273,288.186,787.991,274.348,777.122,271.524ZM643.6,359.208c-8.045,4.377-15.385,7.907-16.232,7.907s-7.057-4.518-13.691-9.884l-12.138-10.025-9.457,5.225c-5.081,2.824-15.526,8.613-23.289,12.99l-13.832,7.625,0.846,6.636c0.424,3.53,1.271,11.013,1.694,16.52l0.988,10.025-14.961,8.048c-8.187,4.378-15.1,7.908-15.526,7.908a5.847,5.847,0,0,1-1.976-1.695c-1.412-1.835-16.8-151.788-15.808-152.776,2.117-1.977,27.241-14.967,28.087-14.685,0.706,0.283,27.806,21.462,60.552,47.019,35,27.534,59.281,47.584,59.422,49C658.278,350.6,653.338,353.984,643.6,359.208ZM547.338,304c-0.565.565,1.835,23.439,3.105,28.945,0.282,1.695.988,3.107,1.411,3.107,1.694,0,20.325-10.59,20.325-11.578C572.179,323.2,548.043,303.294,547.338,304ZM395.606,1278.97c-10.021,5.09-13.408,6.07-22.442,6.64-11.009.56-15.243-.14-24.7-4.1-13.55-5.79-29.5-22.31-36.98-38.4-9.88-21.61-6.069-43.77,10.586-61.56,7.9-8.48,73.254-60.86,74.948-60.15,2.541,0.84,21.454,25.69,21.031,27.53a20.258,20.258,0,0,1-3.033,3.01,6.242,6.242,0,0,1-1.719,1.52c-5.9,5.17-16.672,14.13-28.841,23.85-18.631,14.83-34.863,28.95-37.121,32.19-5.5,7.77-5.646,16.24-.565,24.99,7.2,12.29,16.8,16.53,28.653,13,5.363-1.56,14.679-8.19,40.65-28.95,18.631-14.69,34.721-26.83,35.992-26.83,2.681,0.14,21.313,23.44,21.313,26.69C473.236,1222.07,409.3,1271.91,395.606,1278.97Zm13.127-808.78c-0.141.565,7.9,8.472,18.067,17.65,10.021,9.036,18.348,17.367,18.348,18.355s-4.8,7.06-10.727,13.555c-5.787,6.5-11.15,12-11.856,12.285s-6.775-4.519-13.691-10.731c-74.807-67.211-91.462-82.46-91.462-84.154,0-1.836,70.714-81.331,72.266-81.331,1.835,0,24.419,20.757,24.419,22.31,0,0.565-10.869,12.99-24.136,27.816l-24.136,26.827,8.186,7.343c7.763,6.918,8.469,7.342,10.586,4.942,1.27-1.271,10.586-11.72,20.89-23.157,10.3-11.578,19.619-20.9,20.607-20.9,2.823,0,22.583,18.5,22.583,21.18,0,1.412-8.892,12.425-19.76,24.709C418.049,459.035,409.015,469.484,408.733,470.19Zm111.928,788.45c2.682-1.13,55.753,33.32,63.092,40.66,13.691,14.12,18.349,32.06,12.562,49.28-5.363,16.24-18.772,30.22-32.887,34.46-16.231,4.8-32.04,1.41-53.211-11.44-7.34-4.38-13.692-7.34-14.256-6.64-0.424.57-5.223,7.91-10.445,16.38-5.363,8.33-10.3,15.11-11.292,15.11-0.846,0-7.9-3.95-15.526-8.76-10.444-6.49-13.55-9.17-13.126-11.15C446.56,1372.87,518.826,1259.35,520.661,1258.64Zm16.655,89.8c9.034,3.67,18.349-.14,22.16-9.03,4.658-10.31.988-17.09-14.679-26.83-5.646-3.53-10.727-6.5-11.15-6.5-0.847,0-17.926,27.39-17.926,28.67C515.721,1335.73,533.082,1346.75,537.316,1348.44Zm217.929,12.57c4.94-.99,13.691-1.27,22.3-0.85,16.514,0.85,29.358,4.94,41.214,13.13,8.046,5.51,17.361,15.39,17.361,18.36,0,0.85-4.658,5.65-10.162,10.59-16.655,14.68-14.4,14.12-22.725,5.93-10.586-10.45-17.784-13.7-29.922-13.7-11.716,0-18.914,3.25-26.112,11.3-7.481,8.61-10.445,16.66-10.445,28.8-0.141,12.99,3.529,21.46,12.562,29.37,12.985,11.44,32.6,11.86,48.977.99,2.964-1.98,5.928-3.53,6.634-3.53s5.646,5.79,10.868,12.85l9.6,12.99-4.658,3.95c-7.339,6.07-20.042,12.29-29.922,14.69-31.335,7.34-67.044-7.2-82.429-33.75C683.12,1428.78,707.538,1371.03,755.245,1361.01Zm245.025-14.12c2.4,2.4,7.06,28.52,5.37,30.21-0.85.85-16.376,4.38-34.725,8.05-18.208,3.67-33.593,7.06-34.016,7.49-1.411,1.41,2.4,19.34,4.234,19.34,0.847,0,14.821-2.54,30.911-5.79,16.232-3.1,29.786-5.36,30.206-4.94,1.13,0.99,6.07,24.71,6.07,28.66,0,3.67,2.68,2.97-33.594,10.17-14.961,2.96-27.382,5.65-27.665,5.93-0.705.71,2.823,19.48,3.67,20.47,0.424,0.29,16.373-2.68,35.71-6.49,19.339-3.96,35.569-6.64,36.129-6.07,0.57,0.7,2.4,7.48,3.96,15.25,2.11,10.87,2.4,14.54,1.13,15.81-0.99.85-24.7,6.07-52.652,11.58-28.088,5.51-51.377,10.02-51.8,10.02-1.27,0-3.388-4.37-4.234-9.17-0.565-2.26-6.352-32.06-13.127-66.08-6.634-34.03-11.856-62.7-11.433-63.69C895.4,1365.1,998.3,1344.91,1000.27,1346.89Z"/>
</svg>
